HIERARCHY
ROOT Hips
{
	OFFSET 0.00000 0.00000 0.00000
	CHANNELS 6 Xposition Yposition Zposition Zrotation Yrotation Xrotation 
	JOINT LHipJoint
	{
		OFFSET 0 0 0
		CHANNELS 3 Zrotation Yrotation Xrotation
		JOINT LeftUpLeg
		{
			OFFSET 1.75344 -1.53157 0.77399
			CHANNELS 3 Zrotation Yrotation Xrotation
			JOINT LeftLeg
			{
				OFFSET 2.25415 -6.19323 0.00000
				CHANNELS 3 Zrotation Yrotation Xrotation
				JOINT LeftFoot
				{
					OFFSET 2.30342 -6.32861 0.00000
					CHANNELS 3 Zrotation Yrotation Xrotation
					JOINT LeftToeBase
					{
						OFFSET 0.10958 -0.30108 1.49206
						CHANNELS 3 Zrotation Yrotation Xrotation
						End Site
						{
							OFFSET 0.00000 -0.00000 0.77783
						}
					}
				}
			}
		}
	}
	JOINT RHipJoint
	{
		OFFSET 0 0 0
		CHANNELS 3 Zrotation Yrotation Xrotation
		JOINT RightUpLeg
		{
			OFFSET -1.81912 -1.53156 0.77399
			CHANNELS 3 Zrotation Yrotation Xrotation
			JOINT RightLeg
			{
				OFFSET -2.22882 -6.12365 0.00000
				CHANNELS 3 Zrotation Yrotation Xrotation
				JOINT RightFoot
				{
					OFFSET -2.21943 -6.09785 0.00000
					CHANNELS 3 Zrotation Yrotation Xrotation
					JOINT RightToeBase
					{
						OFFSET -0.18931 -0.52012 1.59379
						CHANNELS 3 Zrotation Yrotation Xrotation
						End Site
						{
							OFFSET -0.00000 -0.00000 0.84686
						}
					}
				}
			}
		}
	}
	JOINT LowerBack
	{
		OFFSET 0 0 0
		CHANNELS 3 Zrotation Yrotation Xrotation
		JOINT Spine
		{
			OFFSET -0.00200 1.66634 -0.14248
			CHANNELS 3 Zrotation Yrotation Xrotation
			JOINT Spine1
			{
				OFFSET -0.00875 1.64542 0.09514
				CHANNELS 3 Zrotation Yrotation Xrotation
				JOINT Neck
				{
					OFFSET 0 0 0
					CHANNELS 3 Zrotation Yrotation Xrotation
					JOINT Neck1
					{
						OFFSET 0.02257 1.59605 0.00839
						CHANNELS 3 Zrotation Yrotation Xrotation
						JOINT Head
						{
							OFFSET -0.10214 1.57530 -0.23335
							CHANNELS 3 Zrotation Yrotation Xrotation
							End Site
							{
								OFFSET -0.03588 1.60717 -0.08062
							}
						}
					}
				}
				JOINT LeftShoulder
				{
					OFFSET 0 0 0
					CHANNELS 3 Zrotation Yrotation Xrotation
					JOINT LeftArm
					{
						OFFSET 2.54983 1.10186 0.40078
						CHANNELS 3 Zrotation Yrotation Xrotation
						JOINT LeftForeArm
						{
							OFFSET 4.28840 -0.00000 0.00000
							CHANNELS 3 Zrotation Yrotation Xrotation
							JOINT LeftHand
							{
								OFFSET 3.06552 -0.00000 -0.00000
								CHANNELS 3 Zrotation Yrotation Xrotation
								JOINT LeftFingerBase
								{
									OFFSET 0 0 0
									CHANNELS 3 Zrotation Yrotation Xrotation
									JOINT LeftHandIndex1
									{
										OFFSET 0.75304 -0.00000 0.00000
										CHANNELS 3 Zrotation Yrotation Xrotation
										End Site
										{
											OFFSET 0.60712 -0.00000 0.00000
										}
									}
								}
								JOINT LThumb
								{
									OFFSET 0 0 0
									CHANNELS 3 Zrotation Yrotation Xrotation
									End Site
									{
										OFFSET 0.61639 -0.00000 0.61639
									}
								}
							}
						}
					}
				}
				JOINT RightShoulder
				{
					OFFSET 0 0 0
					CHANNELS 3 Zrotation Yrotation Xrotation
					JOINT RightArm
					{
						OFFSET -2.60909 1.35448 0.21802
						CHANNELS 3 Zrotation Yrotation Xrotation
						JOINT RightForeArm
						{
							OFFSET -4.52172 -0.00000 -0.00000
							CHANNELS 3 Zrotation Yrotation Xrotation
							JOINT RightHand
							{
								OFFSET -2.89140 -0.00000 0.00000
								CHANNELS 3 Zrotation Yrotation Xrotation
								JOINT RightFingerBase
								{
									OFFSET 0 0 0
									CHANNELS 3 Zrotation Yrotation Xrotation
									JOINT RightHandIndex1
									{
										OFFSET -0.68054 -0.00000 0.00000
										CHANNELS 3 Zrotation Yrotation Xrotation
										End Site
										{
											OFFSET -0.54867 -0.00000 0.00000
										}
									}
								}
								JOINT RThumb
								{
									OFFSET 0 0 0
									CHANNELS 3 Zrotation Yrotation Xrotation
									End Site
									{
										OFFSET -0.55705 -0.00000 0.55705
									}
								}
							}
						}
					}
				}
			}
		}
	}
}
MOTION
Frames: 15
Frame Time: .0083333
9.4447 15.2147 -37.8597 -181.9300 -182.8440 -176.2060 0.0000 0.0000 0.0000 -14.2914 -16.3692 -18.9490 4.1144 12.3112 36.8418 1.7086 -0.4496 -24.6002 2.8779 -10.4948 -30.5944 0.0000 0.0000 0.0000 32.8768 8.3283 -4.3575 -1.7996 -8.4356 24.0451 -0.9373 -16.3495 -30.4988 -0.4280 -4.1984 11.6355 0.4101 0.2980 8.2149 0.1049 0.4608 -4.4672 -0.1936 0.2020 -9.3648 -6.1865 -4.3902 -4.9232 5.3454 -5.9325 10.1292 2.3292 -2.8955 4.1756 0.0000 -0.0000 0.0000 -85.8863 14.0397 24.8521 23.4124 -34.5367 -7.3708 -0.0000 -0.0000 6.9004 12.8928 -35.6989 -7.6078 -7.1250 0.0000 -0.0000 -10.9916 -5.8233 12.2679 0.0000 -0.0000 0.0000 83.3615 -13.4000 24.3726 -18.8818 29.2715 -4.9729 0.0000 0.0000 21.3355 6.1111 -52.6036 175.1382 7.1250 -0.0000 -0.0000 -15.6410 10.2594 -166.8832
9.4382 15.2168 -37.8638 -181.9140 -182.8550 -176.2310 0.0000 0.0000 0.0000 -14.2793 -16.3802 -18.9421 4.1158 12.3129 36.8480 1.6909 -0.3921 -24.4886 3.0034 -10.7005 -31.2765 0.0000 0.0000 0.0000 32.8844 8.3059 -4.3824 -1.8034 -8.4439 24.0706 -0.9262 -16.3536 -30.4301 -0.4377 -4.2451 11.7674 0.4617 0.3313 8.3035 0.0063 0.5045 -4.5921 -0.3359 0.2154 -9.5528 -6.0023 -4.3946 -4.7142 5.3459 -5.9681 10.1783 2.3018 -2.9094 4.1521 0.0000 0.0000 0.0000 -85.6275 14.2271 25.1206 23.5111 -34.6429 -7.4268 -0.0000 -0.0000 6.8757 12.9804 -35.8907 -7.6960 -7.1250 0.0000 -0.0000 -10.9656 -6.0258 12.2725 0.0000 0.0000 0.0000 83.5423 -13.7753 24.3429 -19.0333 29.4601 -5.0472 0.0000 0.0000 21.3990 6.0049 -52.6601 175.2194 7.1250 -0.0000 -0.0000 -15.6844 10.2285 -166.8336
9.4314 15.2175 -37.8697 -181.9210 -182.8470 -176.2330 0.0000 0.0000 0.0000 -14.2301 -16.3165 -18.9911 4.1130 12.3092 36.8348 1.6620 -0.2979 -24.3057 3.2172 -11.0386 -32.4101 0.0000 0.0000 0.0000 32.9276 8.3260 -4.4029 -1.8043 -8.4459 24.0769 -0.9111 -16.3717 -30.3489 -0.4339 -4.2271 11.7164 0.5040 0.2951 8.3991 -0.0225 0.4595 -4.6855 -0.3841 0.1890 -9.7121 -6.0294 -4.3005 -4.6220 5.5342 -5.8652 10.2005 2.3720 -2.8520 4.1434 0.0000 0.0000 0.0000 -85.5210 14.3624 25.1478 23.6375 -34.7786 -7.4988 -0.0000 -0.0000 6.7467 11.8261 -35.9549 -7.0088 -7.1250 0.0000 -0.0000 -11.5907 -5.9017 12.9773 0.0000 0.0000 0.0000 83.5800 -13.9887 24.5525 -19.1711 29.6308 -5.1152 0.0000 0.0000 21.5052 5.7198 -52.8444 175.4358 7.1250 -0.0000 -0.0000 -15.8030 10.1142 -166.6874
9.4229 15.2171 -37.8802 -181.8710 -182.8950 -176.1640 0.0000 0.0000 0.0000 -14.2055 -16.2681 -19.1557 4.1090 12.3041 36.8163 1.6370 -0.3697 -24.0981 3.2756 -11.1284 -32.7142 0.0000 0.0000 0.0000 32.9022 8.3482 -4.5453 -1.8084 -8.4551 24.1052 -0.8999 -16.3605 -30.2625 -0.4488 -4.2983 11.9174 0.4230 0.2260 8.3941 -0.0000 0.3585 -4.7177 -0.2978 0.1461 -9.7462 -6.1298 -4.2274 -4.5946 5.6436 -5.7681 10.1229 2.4285 -2.8032 4.1154 -0.0000 -0.0000 0.0000 -85.5432 14.3777 25.1021 23.8457 -35.0007 -7.6179 -0.0000 -0.0000 6.5037 10.3862 -35.8726 -6.1302 -7.1250 0.0000 -0.0000 -12.3528 -5.6003 13.8104 -0.0000 -0.0000 0.0000 83.4866 -13.9542 24.8450 -19.2152 29.6852 -5.1370 0.0000 0.0000 21.5770 5.7871 -52.8011 175.3846 7.1250 -0.0000 -0.0000 -15.7754 10.1411 -166.7217
9.4223 15.2132 -37.8748 -181.8270 -182.5760 -176.4480 0.0000 0.0000 0.0000 -14.3435 -15.9107 -18.8260 4.1105 12.3060 36.8234 1.6371 -0.2501 -24.1364 3.3799 -11.2860 -33.2506 0.0000 0.0000 0.0000 32.8765 8.2759 -4.2520 -1.8204 -8.4814 24.1862 -0.9164 -16.2098 -30.2166 -0.4386 -4.2496 11.7799 0.4266 0.3246 8.5059 -0.0493 0.4871 -4.6092 -0.3742 0.2065 -9.6915 -6.0783 -4.2480 -4.5596 5.6155 -5.7961 10.0453 2.4111 -2.8173 4.0854 0.0000 -0.0000 0.0000 -85.4309 14.3634 25.4662 24.0760 -35.2445 -7.7504 -0.0000 -0.0000 6.3894 9.8940 -35.0378 -5.7184 -7.1250 0.0000 -0.0000 -12.5437 -4.7158 13.8571 0.0000 -0.0000 0.0000 83.5373 -13.9668 24.8961 -19.2379 29.7132 -5.1482 0.0000 0.0000 21.6517 5.9855 -52.5910 175.2393 7.1250 -0.0000 -0.0000 -15.6921 10.2978 -166.8496
9.4182 15.2128 -37.8755 -181.7790 -182.4560 -176.4040 0.0000 0.0000 0.0000 -14.3647 -15.8162 -18.9057 4.1157 12.3129 36.8479 1.6027 0.0497 -23.9775 3.5183 -11.4903 -33.9518 0.0000 0.0000 0.0000 32.8215 8.3758 -4.3251 -1.8357 -8.5151 24.2900 -0.9367 -16.1488 -30.2892 -0.4129 -4.1248 11.4281 0.3943 0.3916 8.3592 -0.0856 0.5692 -4.5864 -0.4070 0.2474 -9.5786 -6.0215 -4.3129 -4.6088 5.5876 -5.8815 10.0063 2.3876 -2.8580 4.0845 -0.0000 0.0000 0.0000 -85.2926 14.1994 25.8061 24.1697 -35.3432 -7.8045 -0.0000 -0.0000 6.2263 9.2818 -35.0674 -5.3642 -7.1250 0.0000 -0.0000 -12.8763 -4.6579 14.2312 -0.0000 0.0000 0.0000 83.6034 -13.9545 24.8082 -19.2463 29.7236 -5.1524 0.0000 0.0000 21.7687 6.0722 -52.4664 175.1781 7.1250 -0.0000 -0.0000 -15.6556 10.3960 -166.9152
9.4021 15.2096 -37.8998 -181.7430 -182.7730 -176.2580 0.0000 0.0000 0.0000 -14.2397 -15.8454 -19.3210 4.1281 12.3289 36.9056 1.5646 -0.0915 -23.6429 3.5691 -11.5637 -34.2056 0.0000 0.0000 0.0000 32.8651 8.4739 -4.5983 -1.8471 -8.5400 24.3665 -0.9436 -16.2831 -30.4726 -0.4482 -4.2950 11.9082 0.3319 0.2910 8.5086 -0.1017 0.4253 -4.6616 -0.3668 0.1805 -9.7516 -5.9964 -4.3499 -4.7611 5.5781 -5.9269 10.0593 2.3743 -2.8771 4.1277 -0.0000 -0.0000 0.0000 -85.1350 14.1378 26.0435 24.2789 -35.4578 -7.8677 -0.0000 -0.0000 6.2116 8.9171 -35.0444 -5.1482 -7.1250 0.0000 -0.0000 -13.0710 -4.5850 14.4423 -0.0000 -0.0000 0.0000 83.6817 -13.8934 24.7581 -19.2493 29.7273 -5.1539 0.0000 0.0000 22.0790 5.9426 -52.3728 175.2872 7.1250 -0.0000 -0.0000 -15.7087 10.5118 -166.9057
9.3893 15.2061 -37.9137 -181.7720 -182.9330 -176.2490 0.0000 0.0000 0.0000 -14.1114 -15.7716 -19.5319 4.1465 12.3528 36.9918 1.5555 -0.3440 -23.4915 3.3890 -11.2996 -33.2970 0.0000 0.0000 0.0000 32.9769 8.5371 -4.6646 -1.8542 -8.5555 24.4144 -0.9230 -16.4243 -30.4818 -0.5034 -4.5482 12.6243 0.2960 0.2342 8.4691 -0.0508 0.3487 -4.5817 -0.2789 0.1481 -9.6413 -5.9925 -4.3679 -5.0126 5.4899 -5.9308 10.1139 2.3406 -2.8789 4.1840 -0.0000 0.0000 0.0000 -85.0943 14.0484 26.2660 24.4609 -35.6479 -7.9736 -0.0000 -0.0000 6.3102 8.9077 -35.1264 -5.1531 -7.1250 0.0000 -0.0000 -13.0825 -4.6633 14.4722 -0.0000 0.0000 0.0000 83.6464 -13.7205 24.8121 -19.3016 29.7917 -5.1798 0.0000 0.0000 22.3662 5.6379 -52.1485 175.5429 7.1250 -0.0000 -0.0000 -15.8347 10.7859 -166.8841
9.3809 15.2025 -37.9222 -181.8330 -183.0010 -176.3440 0.0000 0.0000 0.0000 -13.9988 -15.6943 -19.5725 4.1708 12.3843 37.1052 1.5469 -0.5897 -23.3495 2.9971 -10.6904 -31.2428 0.0000 0.0000 0.0000 33.1085 8.5373 -4.5943 -1.8541 -8.5552 24.4136 -0.8757 -16.6215 -30.3739 -0.5044 -4.5529 12.6376 0.3137 0.2004 8.4953 -0.0084 0.3091 -4.5096 -0.2369 0.1297 -9.5780 -5.9675 -4.3734 -5.1521 5.4116 -5.9264 10.1618 2.3094 -2.8773 4.2187 -0.0000 0.0000 0.0000 -85.0597 14.0219 26.4571 24.6752 -35.8702 -8.0988 -0.0000 -0.0000 6.3493 8.8585 -35.7124 -5.1982 -7.1250 0.0000 -0.0000 -13.1554 -5.2251 14.6757 -0.0000 0.0000 0.0000 83.6249 -13.6857 25.0127 -19.4279 29.9468 -5.2427 0.0000 0.0000 22.3264 5.6141 -51.9864 175.5715 7.1250 -0.0000 -0.0000 -15.8447 10.9440 -166.9285
9.3742 15.2001 -37.9288 -181.9010 -182.9730 -176.4060 0.0000 0.0000 0.0000 -13.8850 -15.5829 -19.6353 4.1964 12.4173 37.2247 1.5463 -0.8202 -23.2753 2.8463 -10.4421 -30.4204 0.0000 0.0000 0.0000 33.2214 8.5524 -4.5263 -1.8446 -8.5345 24.3498 -0.8471 -16.7237 -30.2917 -0.4813 -4.4487 12.3426 0.3283 0.2063 8.4942 0.0279 0.3220 -4.4812 -0.2084 0.1364 -9.5462 -5.9381 -4.3701 -5.1269 5.3844 -5.9208 10.1065 2.2976 -2.8754 4.1956 -0.0000 -0.0000 0.0000 -85.0285 13.9663 26.6013 24.7805 -35.9788 -8.1606 -0.0000 -0.0000 6.3499 7.7140 -35.4130 -4.4880 -7.1250 0.0000 -0.0000 -13.7445 -4.7809 15.2726 -0.0000 -0.0000 0.0000 83.6204 -13.7104 25.1582 -19.5463 30.0918 -5.3020 0.0000 0.0000 22.2329 5.2410 -52.3309 175.8471 7.1250 -0.0000 -0.0000 -16.0000 10.6958 -166.7046
9.3671 15.1979 -37.9331 -181.9810 -182.8880 -176.4540 0.0000 0.0000 0.0000 -13.7675 -15.3990 -19.7209 4.2203 12.4480 37.3358 1.5436 -0.8986 -23.2312 2.9868 -10.6737 -31.1871 0.0000 0.0000 0.0000 33.3440 8.6165 -4.4456 -1.8357 -8.5151 24.2899 -0.8404 -16.7426 -30.2672 -0.4932 -4.5028 12.4956 0.3562 0.2535 8.4388 0.0566 0.3910 -4.4219 -0.2045 0.1695 -9.4480 -5.8708 -4.3860 -5.1863 5.3578 -5.9404 10.0545 2.2765 -2.8830 4.1881 0.0000 0.0000 0.0000 -84.9598 13.7924 26.8205 24.8135 -36.0127 -8.1800 -0.0000 -0.0000 6.2662 7.6281 -35.6683 -4.4653 -7.1250 0.0000 -0.0000 -13.8088 -5.0168 15.4006 0.0000 0.0000 0.0000 83.6454 -13.5943 25.1097 -19.5715 30.1226 -5.3146 0.0000 0.0000 22.2857 4.3592 -53.1454 176.5095 7.1250 -0.0000 -0.0000 -16.3580 10.1094 -166.1764
9.3608 15.1965 -37.9370 -182.0490 -182.8630 -176.4510 0.0000 0.0000 0.0000 -13.6491 -15.3203 -19.8244 4.2401 12.4733 37.4275 1.5420 -1.0068 -23.1872 2.9674 -10.6422 -31.0823 0.0000 0.0000 0.0000 33.4431 8.6908 -4.4404 -1.8348 -8.5132 24.2841 -0.8341 -16.7685 -30.2525 -0.5208 -4.6250 12.8420 0.3958 0.2767 8.4408 0.0900 0.4302 -4.4574 -0.1978 0.1871 -9.4878 -5.8509 -4.4039 -5.0960 5.3207 -5.9661 10.0329 2.2624 -2.8983 4.1663 -0.0000 -0.0000 0.0000 -84.9222 13.7931 27.0352 24.9012 -36.1029 -8.2316 -0.0000 -0.0000 6.1687 7.4978 -35.7062 -4.3925 -7.1250 0.0000 -0.0000 -13.8810 -5.0364 15.4903 -0.0000 -0.0000 0.0000 83.6417 -13.5975 25.1285 -19.5937 30.1497 -5.3258 0.0000 0.0000 22.2065 4.2035 -53.7014 176.6101 7.1250 -0.0000 -0.0000 -16.4160 9.6167 -165.9521
9.3556 15.1952 -37.9420 -182.0440 -182.8620 -176.4210 0.0000 0.0000 0.0000 -13.6031 -15.3164 -19.9240 4.2553 12.4926 37.4978 1.5373 -1.0595 -23.1359 2.9670 -10.6414 -31.0798 0.0000 0.0000 0.0000 33.4518 8.7255 -4.5134 -1.8420 -8.5289 24.3323 -0.8288 -16.7668 -30.2150 -0.5339 -4.6821 13.0041 0.4324 0.2711 8.4482 0.0614 0.4255 -4.6015 -0.2487 0.1808 -9.6502 -5.8663 -4.3843 -4.6029 5.3711 -5.9660 9.9507 2.2918 -2.9047 4.0608 -0.0000 0.0000 0.0000 -84.8401 14.0281 27.1554 24.9879 -36.1916 -8.2828 -0.0000 -0.0000 6.1480 7.4618 -36.1019 -4.4129 -7.1250 0.0000 -0.0000 -13.9289 -5.4142 15.6309 -0.0000 0.0000 0.0000 83.6805 -13.8352 25.2763 -19.6653 30.2370 -5.3618 0.0000 0.0000 22.0552 4.3027 -53.8270 176.5244 7.1250 -0.0000 -0.0000 -16.3755 9.4788 -165.9424
9.3501 15.1935 -37.9489 -181.9660 -182.8500 -176.4300 0.0000 0.0000 0.0000 -13.6580 -15.2821 -19.9815 4.2687 12.5096 37.5595 1.5240 -0.9247 -23.0728 3.1639 -10.9558 -32.1308 0.0000 0.0000 0.0000 33.3920 8.7627 -4.5539 -1.8525 -8.5518 24.4032 -0.8450 -16.7086 -30.2618 -0.5782 -4.8691 13.5355 0.4024 0.2274 8.5526 0.0480 0.3623 -4.6024 -0.2362 0.1513 -9.7136 -5.9635 -4.3436 -4.8094 5.4220 -5.9031 10.0937 2.3213 -2.8710 4.1394 0.0000 0.0000 0.0000 -84.8795 13.9698 27.0862 25.0136 -36.2179 -8.2979 -0.0000 -0.0000 6.1942 7.5680 -35.3365 -4.3942 -7.1250 0.0000 -0.0000 -13.8172 -4.6880 15.3375 0.0000 0.0000 0.0000 83.6119 -13.6839 25.5492 -19.7058 30.2863 -5.3822 0.0000 0.0000 21.9495 4.0554 -53.8846 176.7220 7.1250 -0.0000 -0.0000 -16.4728 9.4735 -165.8494
9.3436 15.1932 -37.9559 -181.9190 -182.8330 -176.4620 0.0000 0.0000 0.0000 -13.6812 -15.2167 -20.0163 4.2827 12.5273 37.6240 1.5334 -1.0364 -23.1132 3.0910 -10.8410 -31.7455 0.0000 0.0000 0.0000 33.3718 8.8169 -4.5533 -1.8619 -8.5724 24.4666 -0.8866 -16.5737 -30.3963 -0.6890 -5.3065 14.7848 0.3931 0.1990 8.6642 0.0435 0.3232 -4.6212 -0.2298 0.1326 -9.8009 -6.0419 -4.3000 -4.9499 5.4638 -5.8399 10.2333 2.3466 -2.8381 4.2051 0.0000 -0.0000 0.0000 -84.8911 14.0013 27.1704 25.0351 -36.2399 -8.3107 -0.0000 -0.0000 6.2648 7.2156 -35.2563 -4.1798 -7.1250 0.0000 -0.0000 -14.0004 -4.5651 15.5254 0.0000 -0.0000 0.0000 83.5795 -13.6108 25.7268 -19.7777 30.3736 -5.4185 0.0000 0.0000 21.8644 4.3412 -53.5103 176.5075 7.1250 -0.0000 -0.0000 -16.3618 9.7692 -166.0553
